<svg xmlns="http://www.w3.org/2000/svg" xmlns:xlink="http://www.w3.org/1999/xlink" viewBox="0 0 843 125"><defs><style>.cls-1{fill:url(#Gradiente_sem_nome_19);}</style><linearGradient id="Gradiente_sem_nome_19" y1="62.5" x2="843" y2="62.5" gradientUnits="userSpaceOnUse"><stop offset="0" stop-color="#21d4fd"/><stop offset="1" stop-color="#b721ff"/></linearGradient></defs><title>ripple-effect-logo</title><g id="Camada_2" data-name="Camada 2"><g id="Camada_1-2" data-name="Camada 1"><path class="cls-1" d="M57.18,100.28,39.87,75.43H20.77v24.85H0V11.09H38.85q11.92,0,20.71,3.95A30.7,30.7,0,0,1,73.08,26.25a30.75,30.75,0,0,1,4.75,17.2A30.18,30.18,0,0,1,73,60.59a30.47,30.47,0,0,1-13.66,11l20.13,28.67ZM51.93,31.92q-4.87-4-14.24-4H20.77V59H37.69q9.36,0,14.24-4.08T56.8,43.45Q56.8,35.93,51.93,31.92Z"/><path class="cls-1" d="M93.21,19a10.31,10.31,0,0,1-3.46-7.9,10.28,10.28,0,0,1,3.46-7.9,12.72,12.72,0,0,1,9-3.19,13,13,0,0,1,9,3.06,9.77,9.77,0,0,1,3.46,7.64,10.76,10.76,0,0,1-3.46,8.22,12.57,12.57,0,0,1-9,3.25A12.75,12.75,0,0,1,93.21,19Zm-1,12.74h20v68.55h-20Z"/><path class="cls-1" d="M188.41,35.1a31.68,31.68,0,0,1,12.37,12.36A37.15,37.15,0,0,1,205.27,66a37.1,37.1,0,0,1-4.49,18.54A31.62,31.62,0,0,1,188.41,96.9a35.34,35.34,0,0,1-17.5,4.4q-13.22,0-20.77-8.28v32h-20V31.73h19.11v7.9q7.42-8.93,21.67-8.92A35.33,35.33,0,0,1,188.41,35.1Zm-8.34,44.73Q185,74.67,185,66t-4.94-13.82a18,18,0,0,0-25.25,0q-4.95,5.16-4.94,13.82t4.94,13.83a18,18,0,0,0,25.25,0Z"/><path class="cls-1" d="M276.23,35.1a31.77,31.77,0,0,1,12.38,12.36A37.15,37.15,0,0,1,293.09,66a37.1,37.1,0,0,1-4.48,18.54A31.71,31.71,0,0,1,276.23,96.9a35.31,35.31,0,0,1-17.5,4.4q-13.2,0-20.77-8.28v32H218V31.73h19.11v7.9q7.43-8.93,21.66-8.92A35.31,35.31,0,0,1,276.23,35.1ZM267.9,79.83q4.94-5.16,4.94-13.83T267.9,52.18a18,18,0,0,0-25.26,0q-4.94,5.16-4.93,13.82t4.93,13.83a18,18,0,0,0,25.26,0Z"/><path class="cls-1" d="M305.79,5.73h20v94.55h-20Z"/><path class="cls-1" d="M410.92,71.61H358.74a16.15,16.15,0,0,0,6.67,10.07,22.18,22.18,0,0,0,13.07,3.69A26.72,26.72,0,0,0,388,83.78a23.19,23.19,0,0,0,7.75-5l10.64,11.46Q396.7,101.29,378,101.3a45.31,45.31,0,0,1-20.64-4.52,33.31,33.31,0,0,1-13.85-12.55A34.44,34.44,0,0,1,338.61,66a34.79,34.79,0,0,1,4.81-18.15,33.53,33.53,0,0,1,13.2-12.62,39,39,0,0,1,18.79-4.52A38.62,38.62,0,0,1,393.74,35a31.77,31.77,0,0,1,12.89,12.42,36.89,36.89,0,0,1,4.68,18.8C411.31,66.51,411.18,68.3,410.92,71.61Zm-46.8-22A16.26,16.26,0,0,0,358.48,60h34a16.46,16.46,0,0,0-5.64-10.39,17,17,0,0,0-11.29-3.89A17.29,17.29,0,0,0,364.12,49.57Z"/><path class="cls-1" d="M530.54,83.72v16.56H461.05V11.09h67.83V27.65H481.69V47h41.67v16H481.69V83.72Z"/><path class="cls-1" d="M567,33.26h17.69V48.55H567.47v51.73h-20V48.55H536.83V33.26h10.64V30.2q0-11.73,7-18.6t19.69-6.89a36.71,36.71,0,0,1,8.52,1,20.81,20.81,0,0,1,6.73,2.74l-5.25,14.4a13.77,13.77,0,0,0-8.08-2.42q-9.1,0-9.1,9.94Z"/><path class="cls-1" d="M615.93,33.26h17.7V48.55H616.45v51.73h-20V48.55H585.8V33.26h10.64V30.2q0-11.73,7-18.6t19.68-6.89a36.79,36.79,0,0,1,8.53,1,20.81,20.81,0,0,1,6.73,2.74l-5.26,14.4A13.74,13.74,0,0,0,625,20.39q-9.1,0-9.11,9.94Z"/><path class="cls-1" d="M709.27,71.61H657.09a16.15,16.15,0,0,0,6.67,10.07q5.25,3.69,13.08,3.69a26.67,26.67,0,0,0,9.55-1.59,23.19,23.19,0,0,0,7.75-5l10.65,11.46Q695,101.29,676.32,101.3a45.31,45.31,0,0,1-20.64-4.52,33.37,33.37,0,0,1-13.85-12.55A34.44,34.44,0,0,1,637,66a34.79,34.79,0,0,1,4.81-18.15A33.56,33.56,0,0,1,655,35.23,41.12,41.12,0,0,1,692.09,35,31.77,31.77,0,0,1,705,47.46a36.89,36.89,0,0,1,4.68,18.8C709.66,66.51,709.53,68.3,709.27,71.61Zm-46.79-22A16.27,16.27,0,0,0,656.83,60h34a16.37,16.37,0,0,0-5.64-10.39,16.94,16.94,0,0,0-11.28-3.89A17.27,17.27,0,0,0,662.48,49.57Z"/><path class="cls-1" d="M735.88,96.78A33.6,33.6,0,0,1,717.22,66a33.6,33.6,0,0,1,18.66-30.77,42.66,42.66,0,0,1,19.81-4.52,38.65,38.65,0,0,1,19,4.52,27,27,0,0,1,11.86,12.94l-15.52,8.28Q765.69,47,755.56,47a17.6,17.6,0,0,0-12.95,5.1q-5.13,5.09-5.13,13.88t5.13,13.89A17.6,17.6,0,0,0,755.56,85q10.26,0,15.51-9.43L786.59,84a27.47,27.47,0,0,1-11.86,12.74,38.14,38.14,0,0,1-19,4.59A42.66,42.66,0,0,1,735.88,96.78Z"/><path class="cls-1" d="M843,97a20.7,20.7,0,0,1-7.24,3.25,37,37,0,0,1-9,1.08q-12.32,0-19-6.24T801,76.71V48.55H790.3V33.26H801V16.56h20v16.7h17.18V48.55H821v27.9c0,2.89.74,5.12,2.24,6.69a8.32,8.32,0,0,0,6.35,2.36A12.93,12.93,0,0,0,837.62,83Z"/></g></g></svg>